<svg version="1.1" xmlns="http://www.w3.org/2000/svg" xmlns:xlink="http://www.w3.org/1999/xlink" width="84.64257" height="36.88089" viewBox="0,0,84.64257,36.88089"><defs><linearGradient x1="197.67878" y1="180.00014" x2="282.32101" y2="180.00014" gradientUnits="userSpaceOnUse" id="color-1"><stop offset="0" stop-color="#27aae1"/><stop offset="1" stop-color="#115489"/></linearGradient><linearGradient x1="200.85528" y1="180.00014" x2="279.14486" y2="180.00014" gradientUnits="userSpaceOnUse" id="color-2"><stop offset="0" stop-color="#2f7eba"/><stop offset="0.506" stop-color="#3f9dd6"/><stop offset="1" stop-color="#3e97d1"/></linearGradient></defs><g transform="translate(-197.67871,-161.55956)"><g data-paper-data="{&quot;isPaintingLayer&quot;:true}" fill-rule="nonzero" stroke="none" stroke-width="1" stroke-linecap="butt" stroke-linejoin="miter" stroke-miterlimit="10" stroke-dasharray="" stroke-dashoffset="0" style="mix-blend-mode: normal"><path d="M282.32129,179.99965c0,10.16839 -8.27311,18.4408 -18.4408,18.4408h-47.76169c-10.16769,0 -18.44009,-8.2717 -18.44009,-18.4408c0,-10.16769 8.2717,-18.44009 18.44009,-18.44009h47.76169c10.16769,0 18.4408,8.2724 18.4408,18.44009z" fill="url(#color-1)"/><path d="M279.14507,179.99965c0,8.4304 -6.83348,15.26458 -15.26388,15.26458h-47.76169c-8.4304,0 -15.26458,-6.83418 -15.26458,-15.26458v0c0,-8.4297 6.83418,-15.26388 15.26458,-15.26388h47.76169c8.4304,0 15.26388,6.83418 15.26388,15.26388z" fill="url(#color-2)"/><text transform="translate(221.35043,184.23213) scale(0.35268,0.35268)" font-size="40" xml:space="preserve" fill="#000000" fill-rule="nonzero" stroke="none" stroke-width="1" stroke-linecap="butt" stroke-linejoin="miter" stroke-miterlimit="10" stroke-dasharray="" stroke-dashoffset="0" font-family="Sans Serif" font-weight="normal" text-anchor="start" style="mix-blend-mode: normal"><tspan x="0" dy="0">Reset</tspan></text></g></g></svg>