<svg version="1.1" xmlns="http://www.w3.org/2000/svg" xmlns:xlink="http://www.w3.org/1999/xlink" width="22.20634" height="22.522" viewBox="0,0,22.20634,22.522"><defs><linearGradient x1="228.89735" y1="180.00039" x2="251.1032" y2="180.00039" gradientUnits="userSpaceOnUse" id="color-1"><stop offset="0" stop-color="#6d6e71"/><stop offset="1" stop-color="#414042"/></linearGradient><linearGradient x1="240.00047" y1="169.41686" x2="240.00047" y2="190.58278" gradientUnits="userSpaceOnUse" id="color-2"><stop offset="0" stop-color="#58595b"/><stop offset="1" stop-color="#000000"/></linearGradient></defs><g transform="translate(-228.89683,-168.739)"><g data-paper-data="{&quot;isPaintingLayer&quot;:true}" fill-rule="nonzero" stroke="none" stroke-width="1" stroke-linecap="butt" stroke-linejoin="miter" stroke-miterlimit="10" stroke-dasharray="" stroke-dashoffset="0" style="mix-blend-mode: normal"><g><path d="M250.06548,185.69385c1.25838,1.30292 1.22331,3.38656 -0.08,4.64533c-0.61599,0.59431 -1.42627,0.92181 -2.28266,0.92181v0c-0.89896,0 -1.73801,-0.35588 -2.36227,-1.003l-5.37561,-5.56557l-5.45601,5.48596c-0.62111,0.62505 -1.44874,0.96911 -2.32917,0.96911c-0.87334,0 -1.69663,-0.33972 -2.31616,-0.9565c-1.28439,-1.2773 -1.28952,-3.36133 -0.01222,-4.64533l5.54902,-5.57936l-5.46704,-5.66016c-1.25799,-1.30331 -1.22212,-3.38656 0.08079,-4.64533c0.61559,-0.59392 1.42627,-0.92181 2.28188,-0.92181c0.89935,0 1.7384,0.35627 2.36346,1.003l5.37561,5.56478l5.45562,-5.48517c0.62151,-0.62466 1.44913,-0.96871 2.32956,-0.96871c0.87413,0 1.69702,0.33933 2.31616,0.95571c1.284,1.2773 1.28991,3.36133 0.01222,4.64573l-5.54862,5.57936z" fill="url(#color-1)"/><path d="M249.57836,186.1652c1.00103,1.03571 0.97226,2.68544 -0.06345,3.68647c-1.03492,0.99985 -2.68623,0.97108 -3.68608,-0.06424l-5.85603,-6.06293l-5.94391,5.97662c-1.01522,1.02074 -2.66534,1.02507 -3.68687,0.00985c-1.02034,-1.01561 -1.02468,-2.66534 -0.00946,-3.68687l6.01761,-6.05072l-5.92815,-6.13821c-1.00064,-1.03571 -0.97187,-2.68584 0.06385,-3.68647c1.03532,-1.00024 2.68544,-0.97147 3.68608,0.06424l5.85563,6.06254l5.94431,-5.97623c1.01561,-1.02113 2.66613,-1.02586 3.68687,-0.01064c1.02113,1.01561 1.02546,2.66613 0.00985,3.68726l-6.01801,6.05072z" fill="url(#color-2)"/></g></g></g></svg>